<svg width="179" height="42" viewBox="0 0 179 42" fill="none" xmlns="http://www.w3.org/2000/svg">
<path d="M15.8828 1.01218C15.9864 1.16554 16.0928 1.31831 16.2047 1.46942C16.33 1.63868 16.4594 1.80499 16.593 1.96864C16.7266 2.1323 16.8646 2.29321 17.0062 2.45108C17.1479 2.60895 17.2933 2.76381 17.4426 2.91571C17.592 3.06762 17.7454 3.21644 17.9022 3.3622C18.0591 3.50796 18.2196 3.65078 18.3837 3.79021C18.5477 3.92964 18.7153 4.0658 18.8863 4.19873C19.0572 4.33166 19.2317 4.46118 19.4093 4.58744C19.587 4.71369 19.7679 4.83659 19.9519 4.95599C20.1359 5.07537 20.3229 5.19136 20.513 5.3037C20.703 5.41604 20.8963 5.52481 21.0921 5.62992C21.288 5.73503 21.4867 5.83625 21.6881 5.93397C21.8895 6.03167 22.0935 6.1257 22.3002 6.21584C22.5069 6.30597 22.7161 6.39249 22.9278 6.47487C23.1395 6.55723 23.3534 6.63561 23.5698 6.71004C23.7862 6.78446 24.0048 6.85472 24.2256 6.92103C24.4464 6.98732 24.6695 7.04948 24.8945 7.10748C25.2437 7.1975 25.5946 7.27656 25.9464 7.34434C26.2982 7.41212 26.6506 7.46865 27.0036 7.514C27.3566 7.55935 27.7101 7.59337 28.0629 7.61613C28.4157 7.63889 28.7682 7.6504 29.1195 7.6504C29.4898 7.6504 29.8555 7.63829 30.2164 7.61411C30.5772 7.58995 30.9329 7.55382 31.283 7.50627C31.6332 7.45873 31.9778 7.3997 32.3161 7.32957C32.6544 7.25943 32.9866 7.17828 33.3119 7.08633C33.6372 6.99438 33.9553 6.89156 34.2663 6.77859C34.5206 6.68625 34.7665 6.58246 35.0105 6.47655C31.2987 2.77164 26.1756 0.480469 20.5166 0.480469C18.9223 0.480469 17.3726 0.668217 15.8828 1.01229L15.8828 1.01218Z" fill="url(#paint0_linear_15269_16509)"/>
<path d="M8.25008 4.55723C8.26783 4.61223 8.28189 4.66718 8.3008 4.72219C8.36469 4.90799 8.43536 5.09373 8.51246 5.27953C8.58956 5.46534 8.67321 5.65102 8.76342 5.83655C8.85364 6.02208 8.95045 6.20758 9.05369 6.39256C9.15692 6.57754 9.26643 6.76207 9.38259 6.94622C9.49875 7.13038 9.62148 7.31382 9.75047 7.49686C9.87946 7.67989 10.0149 7.86248 10.1566 8.04413C10.2984 8.22577 10.4464 8.40672 10.6008 8.5867C10.7551 8.76667 10.9156 8.94554 11.0825 9.12355C11.2541 9.30655 11.4309 9.48698 11.6127 9.66478C11.7944 9.84257 11.9814 10.0178 12.173 10.1902C12.3647 10.3626 12.5611 10.5321 12.7623 10.6989C12.9635 10.8656 13.1694 11.0297 13.3798 11.1907C13.5901 11.3517 13.8047 11.5095 14.0238 11.6644C14.2429 11.8193 14.4665 11.9712 14.694 12.1199C14.9216 12.2686 15.1532 12.4144 15.3888 12.5567C15.6244 12.699 15.8638 12.838 16.1071 12.9736C16.5936 13.2449 17.0954 13.5025 17.6105 13.746C18.1256 13.9895 18.6541 14.2189 19.1948 14.433C19.7356 14.6471 20.2884 14.8459 20.8518 15.029C21.4152 15.212 21.9891 15.3792 22.5722 15.5296C23.1411 15.6761 23.7107 15.8045 24.2796 15.9149C24.8484 16.0252 25.4167 16.1175 25.9835 16.1914C26.5504 16.2652 27.1159 16.3206 27.6788 16.3577C28.2416 16.3947 28.8018 16.4134 29.3585 16.4134C29.7915 16.4134 30.2179 16.4025 30.6368 16.3809C31.0558 16.3592 31.4674 16.3268 31.8711 16.2841C32.2749 16.2414 32.6707 16.1883 33.0581 16.1252C33.4454 16.0621 33.8241 15.989 34.1939 15.9062C34.5638 15.8233 34.9249 15.7307 35.2761 15.6287C35.6272 15.5266 35.9687 15.4153 36.3 15.2947C36.6314 15.1742 36.9525 15.0445 37.2629 14.906C37.5733 14.7675 37.873 14.6204 38.1613 14.4646C38.4496 14.3088 38.7267 14.1445 38.9917 13.9721C39.2125 13.8284 39.4198 13.6757 39.6237 13.5209C38.7501 11.294 37.5007 9.25589 35.9506 7.48677C35.9008 7.51033 35.8543 7.53797 35.8041 7.56102C35.4775 7.71093 35.1424 7.84946 34.7989 7.97659C34.4554 8.10373 34.1037 8.21949 33.7447 8.32297C33.3856 8.42644 33.0191 8.51784 32.6458 8.59677C32.2724 8.6757 31.8921 8.74215 31.5058 8.79565C31.1196 8.84915 30.7272 8.88974 30.3293 8.91693C29.9315 8.94412 29.5284 8.95792 29.1202 8.95792C28.7413 8.95792 28.3612 8.94548 27.981 8.92096C27.6008 8.89644 27.2203 8.85959 26.8401 8.81077C26.4599 8.76195 26.08 8.70125 25.7012 8.62833C25.3224 8.55542 24.9447 8.47046 24.5687 8.37367C24.3257 8.31102 24.085 8.24382 23.8464 8.1721C23.6078 8.10037 23.3714 8.02424 23.1375 7.94365C22.9037 7.86305 22.6723 7.77794 22.4434 7.68866C22.2146 7.59939 21.988 7.5059 21.7645 7.40813C21.5409 7.31037 21.3203 7.20846 21.1023 7.10242C20.8843 6.99638 20.669 6.88598 20.4569 6.77183C20.2449 6.6577 20.0359 6.53976 19.83 6.41773C19.6242 6.29571 19.4216 6.16985 19.2223 6.04012C19.023 5.91039 18.8269 5.77688 18.6344 5.63967C18.4418 5.50244 18.253 5.36123 18.0676 5.21669C17.8822 5.07215 17.7003 4.92419 17.5223 4.77257C17.3444 4.62093 17.1702 4.46582 16.9999 4.30726C16.8297 4.1487 16.6633 3.98674 16.501 3.82147C16.3388 3.65621 16.1806 3.48764 16.0267 3.31587C15.8727 3.1441 15.7228 2.96887 15.5775 2.79077C15.4322 2.61266 15.2913 2.43177 15.1549 2.24753C15.0165 2.06068 14.8841 1.87188 14.7571 1.68177C14.6868 1.57645 14.6224 1.46953 14.5555 1.36328C12.2563 2.06054 10.1297 3.15287 8.25 4.55716L8.25008 4.55723Z" fill="url(#paint1_linear_15269_16509)"/>
<path d="M2.86914 10.543C2.90112 10.7234 2.93274 10.9038 2.97362 11.0843C3.02862 11.327 3.09174 11.5697 3.16276 11.8123C3.23379 12.0549 3.31267 12.2975 3.39962 12.5396C3.48657 12.7817 3.58142 13.0234 3.68418 13.2646C3.78694 13.5058 3.89764 13.7466 4.0161 13.9866C4.13456 14.2266 4.26068 14.4658 4.39473 14.7042C4.52878 14.9426 4.67051 15.18 4.82006 15.4164C4.9696 15.6528 5.12717 15.8882 5.29207 16.1223C5.45699 16.3563 5.62924 16.5893 5.80944 16.8207C5.98964 17.0521 6.17747 17.2821 6.37284 17.5104C6.57172 17.7429 6.77712 17.9718 6.98831 18.1971C7.1995 18.4225 7.41663 18.6443 7.63973 18.8623C7.86282 19.0804 8.09185 19.2946 8.32642 19.505C8.56099 19.7155 8.80112 19.9222 9.04671 20.1249C9.29231 20.3275 9.54337 20.526 9.7996 20.7205C10.0558 20.9151 10.317 21.1054 10.5834 21.2916C10.8498 21.4778 11.1213 21.66 11.3974 21.8376C11.6735 22.0152 11.9545 22.1882 12.24 22.3569C12.5254 22.5257 12.8154 22.6901 13.1098 22.8498C13.4041 23.0094 13.7026 23.1645 14.0054 23.3147C14.3082 23.465 14.6151 23.6105 14.9259 23.7511C15.2367 23.8918 15.5516 24.0278 15.87 24.1587C16.1884 24.2895 16.5103 24.4152 16.8358 24.5359C17.1614 24.6566 17.4906 24.772 17.8229 24.8823C18.1552 24.9926 18.4905 25.0978 18.8291 25.1974C19.1677 25.2971 19.5093 25.3915 19.8537 25.4803C20.1608 25.5594 20.4683 25.6337 20.7759 25.703C21.0835 25.7724 21.3915 25.837 21.6995 25.8966C22.0074 25.9561 22.3154 26.0105 22.6233 26.0602C22.9313 26.1099 23.2389 26.1547 23.5466 26.1945C23.8542 26.2344 24.1619 26.2694 24.4691 26.2994C24.7763 26.3293 25.0832 26.3543 25.3896 26.3743C25.696 26.3943 26.0021 26.4093 26.3074 26.4193C26.6128 26.4293 26.9175 26.4341 27.2216 26.4341C27.4875 26.4341 27.7517 26.4303 28.0141 26.4227C28.2765 26.415 28.5373 26.4036 28.7959 26.3884C29.0545 26.3732 29.3109 26.3542 29.5655 26.3316C29.8201 26.309 30.0727 26.2828 30.3231 26.253C30.5735 26.2232 30.8219 26.1899 31.0679 26.1529C31.3139 26.1159 31.5576 26.0753 31.799 26.0313C32.0404 25.9872 32.2794 25.9398 32.5159 25.8888C32.7525 25.8379 32.9866 25.7833 33.2181 25.7255C33.4495 25.6678 33.6785 25.6068 33.9048 25.5425C34.131 25.4781 34.3545 25.4105 34.5753 25.3395C34.7961 25.2686 35.0143 25.1945 35.2294 25.1171C35.4445 25.0398 35.6565 24.9592 35.8657 24.8756C36.0749 24.792 36.2811 24.7053 36.4842 24.6156C36.6873 24.5258 36.8874 24.4329 37.0842 24.3371C37.281 24.2412 37.4748 24.1422 37.6651 24.0404C37.8554 23.9386 38.0422 23.8342 38.2258 23.7266C38.4094 23.6191 38.5897 23.5086 38.7664 23.3954C38.943 23.2821 39.1159 23.1661 39.2854 23.0473C39.4549 22.9285 39.6208 22.8067 39.783 22.6825C39.9451 22.5583 40.1035 22.4314 40.258 22.3018C40.4126 22.1723 40.5634 22.0404 40.7102 21.9057C40.8158 21.8088 40.9168 21.709 41.0183 21.6094C41.0242 21.406 41.0337 21.2035 41.0337 20.9987C41.0337 18.8368 40.6946 16.7555 40.0739 14.7996C40.0064 14.8472 39.9453 14.8992 39.8764 14.9457C39.5856 15.1418 39.2821 15.3286 38.9663 15.5058C38.6504 15.6829 38.3223 15.8503 37.9826 16.0077C37.6429 16.1652 37.2917 16.3127 36.9294 16.4498C36.5671 16.5869 36.1936 16.7134 35.81 16.8295C35.4263 16.9454 35.0324 17.0507 34.6287 17.1449C34.225 17.2391 33.8116 17.3221 33.3891 17.3939C32.9665 17.4656 32.5351 17.5261 32.095 17.5746C31.6549 17.6231 31.2062 17.6599 30.7498 17.6845C30.2934 17.7091 29.8294 17.7214 29.3579 17.7214C29.0659 17.7214 28.7728 17.7167 28.4791 17.707C28.1853 17.6973 27.8909 17.6827 27.5958 17.6633C27.0056 17.6245 26.4128 17.5663 25.8186 17.4889C25.2245 17.4116 24.629 17.3153 24.033 17.1997C23.437 17.0841 22.8405 16.9491 22.2448 16.7955C21.9385 16.7166 21.6344 16.6334 21.333 16.5456C21.0315 16.4578 20.7325 16.3655 20.4363 16.2691C20.1401 16.1727 19.8467 16.0722 19.5561 15.9674C19.2656 15.8626 18.9779 15.7538 18.6934 15.6409C18.4089 15.5279 18.1276 15.4107 17.8495 15.2898C17.5714 15.1689 17.2967 15.0442 17.0254 14.9155C16.7541 14.7869 16.4862 14.6543 16.2221 14.5181C15.958 14.3819 15.6975 14.242 15.441 14.0985C15.1845 13.955 14.9317 13.808 14.6831 13.6574C14.4345 13.5068 14.19 13.3526 13.9497 13.1951C13.7095 13.0376 13.4737 12.8768 13.2422 12.7127C13.0107 12.5485 12.7836 12.381 12.5612 12.2104C12.3388 12.0398 12.121 11.8662 11.9081 11.6893C11.6952 11.5125 11.4872 11.3326 11.2842 11.1498C11.0812 10.967 10.8833 10.7811 10.6906 10.5925C10.4978 10.4038 10.3103 10.2122 10.1282 10.018C9.94151 9.81886 9.76184 9.61841 9.58932 9.41661C9.41678 9.21481 9.25139 9.01168 9.0931 8.80753C8.93483 8.60337 8.78347 8.39826 8.63957 8.19206C8.49566 7.98585 8.35914 7.77848 8.2297 7.57053C8.10027 7.36261 7.97804 7.154 7.86317 6.94464C7.74831 6.73531 7.64083 6.52549 7.54065 6.31506C7.44047 6.10464 7.34752 5.89363 7.26215 5.68245C7.22759 5.59698 7.19953 5.51134 7.16741 5.42578C5.47055 6.88119 4.01757 8.61123 2.86923 10.5431L2.86914 10.543Z" fill="url(#paint2_linear_15269_16509)"/>
<path d="M1.94113 12.2817C0.696364 14.9267 0 17.8806 0 20.9982C0 32.3296 9.18548 41.5155 20.5173 41.5155C31.0113 41.5155 39.6585 33.6354 40.8798 23.4699C40.8208 23.5175 40.7641 23.5668 40.7041 23.6137C40.5295 23.7503 40.351 23.8839 40.1686 24.0145C39.9861 24.1452 39.7999 24.273 39.6099 24.3975C39.4198 24.5221 39.2258 24.6437 39.0283 24.762C38.8309 24.8803 38.6299 24.9955 38.4253 25.1074C38.2207 25.2193 38.0126 25.3278 37.8011 25.4333C37.5896 25.5387 37.3746 25.6409 37.1564 25.7396C36.9382 25.8384 36.7166 25.9339 36.4919 26.0259C36.2671 26.1179 36.0392 26.2062 35.8082 26.2913C35.5772 26.3764 35.3431 26.4582 35.1061 26.5362C34.869 26.6142 34.6293 26.6885 34.3864 26.7593C34.1436 26.8301 33.8978 26.8974 33.6493 26.9609C33.4009 27.0244 33.1499 27.0842 32.8961 27.1403C32.6424 27.1963 32.386 27.2484 32.1271 27.2968C31.8683 27.3453 31.6071 27.3902 31.3433 27.4309C31.0796 27.4716 30.8132 27.5082 30.5448 27.5411C30.2763 27.5739 30.0057 27.6026 29.7328 27.6274C29.4599 27.6522 29.1848 27.6732 28.9077 27.6899C28.6306 27.7066 28.3512 27.7191 28.0701 27.7275C27.789 27.7359 27.506 27.7403 27.2212 27.7403C26.9033 27.7403 26.5848 27.7349 26.2657 27.7245C25.9465 27.714 25.6267 27.6983 25.3065 27.6775C24.9864 27.6566 24.6659 27.6304 24.345 27.5992C24.0242 27.5679 23.7028 27.5316 23.3815 27.49C23.0602 27.4484 22.7388 27.4018 22.4173 27.3499C22.0958 27.298 21.7745 27.2411 21.4531 27.1789C21.1317 27.1167 20.8102 27.0494 20.4893 26.977C20.1682 26.9046 19.8477 26.8271 19.5274 26.7445C19.1669 26.6516 18.8092 26.5526 18.4547 26.4482C18.1002 26.3437 17.7488 26.2336 17.4008 26.1179C17.0528 26.0022 16.7081 25.8808 16.3671 25.7541C16.026 25.6274 15.6885 25.4954 15.3548 25.358C15.0212 25.2206 14.6916 25.0782 14.3658 24.9304C14.0399 24.7825 13.7181 24.6294 13.4006 24.4714C13.083 24.3134 12.7697 24.1502 12.4609 23.9823C12.1521 23.8143 11.8477 23.6418 11.5481 23.4642C11.2485 23.2867 10.9538 23.1042 10.6639 22.9173C10.374 22.7303 10.089 22.5388 9.80919 22.3428C9.52938 22.1468 9.25468 21.9463 8.98542 21.7414C8.71617 21.5366 8.45248 21.3273 8.19425 21.1139C7.93601 20.9005 7.6831 20.6829 7.43634 20.4611C7.18955 20.2394 6.9489 20.0136 6.71403 19.7838C6.47917 19.5541 6.25016 19.3202 6.02768 19.0827C5.8052 18.8451 5.58895 18.6037 5.37929 18.3587C5.16608 18.1096 4.96139 17.8587 4.76482 17.6058C4.56827 17.353 4.37988 17.0983 4.20008 16.8422C4.02028 16.5861 3.84899 16.3282 3.68606 16.0692C3.52313 15.8101 3.3687 15.55 3.22277 15.2884C3.07685 15.0269 2.93937 14.7639 2.81055 14.5002C2.68173 14.2366 2.56165 13.9721 2.45007 13.7067C2.33849 13.4414 2.23557 13.1754 2.14133 12.9088C2.06752 12.7 2.00354 12.4906 1.94042 12.2812L1.94113 12.2817Z" fill="url(#paint3_linear_15269_16509)"/>
<path d="M1.94141 12.2822C2.00452 12.4915 2.06849 12.7009 2.14231 12.9097C2.23656 13.1763 2.33947 13.4423 2.45105 13.7076C2.56264 13.973 2.68272 14.2375 2.81153 14.5012C2.94035 14.7648 3.07782 15.0278 3.22376 15.2893C3.36968 15.5508 3.52412 15.811 3.68705 16.0701C3.84997 16.3291 4.02126 16.587 4.20106 16.8431C4.38086 17.0992 4.56925 17.3539 4.7658 17.6067C4.96236 17.8596 5.16707 18.1105 5.38027 18.3596C5.58994 18.6046 5.80619 18.8461 6.02866 19.0836C6.25114 19.3211 6.48017 19.555 6.71502 19.7847C6.94988 20.0145 7.19055 20.2403 7.43732 20.462C7.6841 20.6838 7.93699 20.9014 8.19523 21.1148C8.45347 21.3282 8.71716 21.5375 8.9864 21.7424C9.25565 21.9472 9.53035 22.1477 9.81017 22.3437C10.09 22.5398 10.3749 22.7313 10.6649 22.9182C10.9548 23.1051 11.2495 23.2876 11.5491 23.4651C11.8487 23.6427 12.1531 23.8153 12.4619 23.9832C12.7706 24.1511 13.084 24.3143 13.4015 24.4723C13.7191 24.6303 14.0409 24.7834 14.3667 24.9313C14.6926 25.0791 15.0221 25.2215 15.3558 25.3589C15.6895 25.4963 16.027 25.6283 16.368 25.755C16.7091 25.8817 17.0538 26.0032 17.4018 26.1188C17.7498 26.2346 18.1012 26.3446 18.4557 26.4491C18.8102 26.5535 19.1679 26.6525 19.5284 26.7454C19.8487 26.828 20.1692 26.9055 20.4902 26.9779C20.8112 27.0503 21.1327 27.1176 21.4541 27.1798C21.7755 27.242 22.0968 27.2989 22.4183 27.3508C22.7398 27.4027 23.0612 27.4493 23.3825 27.4909C23.7038 27.5325 24.0252 27.5688 24.346 27.6001C24.6669 27.6313 24.9874 27.6575 25.3075 27.6784C25.6277 27.6992 25.9475 27.7149 26.2667 27.7254C26.5858 27.7359 26.9043 27.7412 27.2221 27.7412C27.507 27.7412 27.79 27.7368 28.0711 27.7284C28.3522 27.72 28.6315 27.7075 28.9086 27.6908C29.1857 27.6741 29.4609 27.6531 29.7338 27.6283C30.0066 27.6035 30.2773 27.5748 30.5458 27.542C30.8142 27.5091 31.0806 27.4725 31.3443 27.4318C31.6081 27.3911 31.8692 27.3462 32.1281 27.2977C32.387 27.2493 32.6434 27.1972 32.8971 27.1412C33.1509 27.0851 33.4019 27.0253 33.6503 26.9618C33.8987 26.8983 34.1446 26.831 34.3874 26.7602C34.6302 26.6894 34.87 26.6151 35.107 26.5371C35.3441 26.4591 35.5782 26.3773 35.8092 26.2922C36.0402 26.2071 36.2681 26.1188 36.4929 26.0268C36.7176 25.9348 36.9391 25.8393 37.1574 25.7405C37.3756 25.6418 37.5905 25.5396 37.8021 25.4342C38.0136 25.3287 38.2217 25.2202 38.4263 25.1083C38.6309 24.9964 38.8319 24.8812 39.0293 24.7629C39.2268 24.6446 39.4208 24.523 39.6109 24.3984C39.8009 24.2739 39.9871 24.1461 40.1696 24.0154C40.352 23.8848 40.5305 23.7513 40.7051 23.6146C40.765 23.5677 40.8218 23.5185 40.8808 23.4708C40.9544 22.8581 41.0005 22.2374 41.0189 21.6094C40.9174 21.7089 40.8164 21.8088 40.7108 21.9057C40.564 22.0404 40.4131 22.1722 40.2586 22.3018C40.104 22.4313 39.9457 22.5582 39.7836 22.6824C39.6214 22.8066 39.4555 22.9285 39.286 23.0472C39.1165 23.166 38.9436 23.2821 38.7669 23.3953C38.5903 23.5085 38.41 23.619 38.2264 23.7266C38.0428 23.8341 37.856 23.9386 37.6657 24.0403C37.4754 24.1421 37.2816 24.2411 37.0848 24.337C36.888 24.4328 36.6879 24.5257 36.4848 24.6155C36.2817 24.7053 36.0755 24.7919 35.8663 24.8755C35.6571 24.9591 35.4451 25.0397 35.23 25.1171C35.0149 25.1944 34.7967 25.2685 34.5759 25.3395C34.3551 25.4104 34.1316 25.478 33.9053 25.5424C33.6791 25.6068 33.4501 25.6678 33.2186 25.7255C32.9871 25.7832 32.753 25.8378 32.5165 25.8888C32.2799 25.9397 32.0409 25.9872 31.7995 26.0312C31.5582 26.0752 31.3145 26.1158 31.0685 26.1528C30.8225 26.1898 30.5741 26.2231 30.3237 26.2529C30.0733 26.2828 29.8207 26.309 29.5661 26.3315C29.3115 26.3541 29.055 26.3731 28.7964 26.3883C28.5378 26.4035 28.277 26.4149 28.0147 26.4226C27.7523 26.4302 27.4881 26.434 27.2221 26.434C26.9181 26.434 26.6134 26.4292 26.308 26.4192C26.0026 26.4092 25.6966 26.3942 25.3902 26.3742C25.0838 26.3542 24.7769 26.3292 24.4697 26.2993C24.1625 26.2694 23.8548 26.2343 23.5471 26.1945C23.2394 26.1546 22.9318 26.1098 22.6239 26.0601C22.316 26.0104 22.0079 25.956 21.7 25.8965C21.3921 25.8369 21.0841 25.7723 20.7765 25.703C20.4689 25.6336 20.1614 25.5594 19.8543 25.4802C19.5098 25.3914 19.1682 25.297 18.8296 25.1974C18.491 25.0977 18.1557 24.9926 17.8235 24.8822C17.4912 24.7719 17.162 24.6566 16.8364 24.5359C16.5108 24.4152 16.1889 24.2894 15.8705 24.1586C15.5522 24.0278 15.2373 23.8917 14.9265 23.7511C14.6157 23.6104 14.3088 23.465 14.006 23.3147C13.7032 23.1644 13.4046 23.0094 13.1103 22.8497C12.816 22.6901 12.526 22.5256 12.2405 22.3569C11.9551 22.1881 11.6741 22.0151 11.398 21.8375C11.1218 21.6599 10.8503 21.4778 10.584 21.2916C10.3176 21.1054 10.0564 20.915 9.80017 20.7204C9.54396 20.5259 9.2929 20.3274 9.04728 20.1248C8.80167 19.9222 8.56156 19.7154 8.32699 19.5049C8.09242 19.2945 7.86339 19.0803 7.6403 18.8623C7.4172 18.6442 7.20007 18.4224 6.98888 18.1971C6.77769 17.9717 6.57227 17.7428 6.37341 17.5104C6.17804 17.2821 5.99021 17.052 5.81001 16.8206C5.62981 16.5893 5.45756 16.3563 5.29264 16.1222C5.12772 15.8881 4.97016 15.6528 4.82063 15.4163C4.67109 15.1799 4.52937 14.9425 4.3953 14.7041C4.26125 14.4657 4.13514 14.2265 4.01667 13.9865C3.89822 13.7465 3.78751 13.5058 3.68475 13.2645C3.58199 13.0233 3.48714 12.7816 3.40019 12.5396C3.31324 12.2975 3.23437 12.0548 3.16333 11.8122C3.0923 11.5696 3.02919 11.3269 2.97419 11.0842C2.93331 10.9038 2.90169 10.7233 2.86971 10.543C2.53462 11.1067 2.22237 11.6853 1.94146 12.2822L1.94141 12.2822Z" fill="white"/>
<path fill-rule="evenodd" clip-rule="evenodd" d="M7.16803 5.42605C7.20015 5.51161 7.22821 5.59725 7.26277 5.68272C7.34815 5.89391 7.44111 6.1049 7.54127 6.31532C7.64144 6.52574 7.74892 6.73556 7.86379 6.94491C7.97865 7.15425 8.10088 7.36286 8.23032 7.5708C8.35976 7.77874 8.49628 7.9861 8.64019 8.19232C8.7841 8.39853 8.93546 8.60363 9.09372 8.80779C9.252 9.01195 9.41739 9.21508 9.58994 9.41688C9.76248 9.61868 9.94213 9.81912 10.1288 10.0182C10.3109 10.2125 10.4985 10.4041 10.6912 10.5927C10.8839 10.7814 11.0818 10.9672 11.2848 11.1501C11.4878 11.3329 11.6958 11.5128 11.9087 11.6896C12.1216 11.8664 12.3394 12.0401 12.5618 12.2107C12.7842 12.3813 13.0113 12.5488 13.2428 12.7129C13.4743 12.8771 13.7101 13.0379 13.9503 13.1954C14.1906 13.3528 14.4351 13.507 14.6837 13.6576C14.9323 13.8082 15.1851 13.9552 15.4416 14.0988C15.6982 14.2423 15.9586 14.3822 16.2227 14.5184C16.4869 14.6546 16.7547 14.7871 17.026 14.9158C17.2973 15.0445 17.572 15.1691 17.8501 15.2901C18.1282 15.411 18.4095 15.5282 18.694 15.6411C18.9785 15.7541 19.2662 15.8629 19.5567 15.9677C19.8473 16.0724 20.1407 16.173 20.4369 16.2694C20.7331 16.3658 21.0322 16.4581 21.3336 16.5459C21.6351 16.6336 21.9391 16.7169 22.2454 16.7958C22.8412 16.9494 23.4377 17.0844 24.0336 17.2C24.6297 17.3156 25.2251 17.4119 25.8193 17.4892C26.4134 17.5665 27.0063 17.6248 27.5965 17.6636C27.8916 17.683 28.186 17.6975 28.4797 17.7072C28.7734 17.717 29.0665 17.7217 29.3586 17.7217C29.83 17.7217 30.294 17.7093 30.7504 17.6847C31.2068 17.6601 31.6555 17.6234 32.0956 17.5749C32.5357 17.5264 32.9672 17.4659 33.3897 17.3941C33.8122 17.3224 34.2257 17.2394 34.6294 17.1452C35.0331 17.051 35.427 16.9457 35.8106 16.8297C36.1942 16.7137 36.5677 16.5872 36.93 16.4501C37.2923 16.313 37.6435 16.1654 37.9832 16.008C38.3229 15.8505 38.651 15.6832 38.9669 15.5061C39.2827 15.3289 39.5863 15.1421 39.877 14.946C39.946 14.8995 40.007 14.8474 40.0745 14.7999C39.9375 14.3678 39.7881 13.9413 39.6237 13.5222C39.4198 13.6771 39.2125 13.8298 38.9917 13.9734C38.7267 14.1459 38.4496 14.3101 38.1613 14.4659C37.873 14.6217 37.5733 14.7689 37.2629 14.9074C36.9525 15.0459 36.6314 15.1755 36.3001 15.2961C35.9687 15.4166 35.6273 15.528 35.2761 15.63C34.9249 15.732 34.5638 15.8247 34.194 15.9075C33.8241 15.9904 33.4455 16.0635 33.0581 16.1266C32.6707 16.1896 32.2749 16.2428 31.8712 16.2855C31.4674 16.3281 31.0558 16.3606 30.6368 16.3822C30.2179 16.4039 29.7916 16.4148 29.3585 16.4148C28.8018 16.4148 28.2416 16.3961 27.6788 16.359C27.1159 16.322 26.5504 16.2666 25.9835 16.1927C25.4166 16.1189 24.8484 16.0266 24.2796 15.9163C23.7107 15.8059 23.1411 15.6775 22.5722 15.5309C21.9891 15.3806 21.4152 15.2134 20.8518 15.0303C20.2884 14.8473 19.7356 14.6484 19.1948 14.4344C18.6541 14.2203 18.1256 13.9908 17.6105 13.7473C17.0954 13.5038 16.5936 13.2462 16.1071 12.975C15.8638 12.8393 15.6244 12.7003 15.3888 12.5581C15.1532 12.4158 14.9216 12.27 14.694 12.1213C14.4665 11.9726 14.2429 11.8207 14.0238 11.6658C13.8047 11.5108 13.5901 11.353 13.3798 11.1921C13.1695 11.0311 12.9635 10.867 12.7623 10.7002C12.5611 10.5334 12.3647 10.364 12.173 10.1916C11.9814 10.0192 11.7944 9.84395 11.6127 9.66614C11.4309 9.48834 11.2541 9.30792 11.0825 9.12492C10.9156 8.9469 10.7551 8.76803 10.6008 8.58805C10.4464 8.40808 10.2984 8.22713 10.1566 8.04549C10.0149 7.86384 9.87946 7.68124 9.75047 7.49822C9.62148 7.3152 9.49875 7.13174 9.3826 6.94758C9.26644 6.76343 9.15694 6.57889 9.0537 6.39392C8.95046 6.20894 8.85365 6.02344 8.76343 5.83791C8.67322 5.65238 8.58956 5.4667 8.51247 5.28089C8.43537 5.09509 8.3647 4.90934 8.30081 4.72355C8.2819 4.66854 8.26783 4.61359 8.25008 4.55859C7.8793 4.83562 7.5188 5.12513 7.16797 5.42604L7.16803 5.42605Z" fill="white"/>
<path fill-rule="evenodd" clip-rule="evenodd" d="M14.5547 1.36639C14.6215 1.47264 14.6859 1.57955 14.7563 1.68489C14.8832 1.87499 15.0157 2.06377 15.154 2.25064C15.2904 2.43488 15.4314 2.61577 15.5767 2.79389C15.722 2.972 15.8719 3.14719 16.0258 3.31898C16.1798 3.49076 16.3379 3.65933 16.5002 3.82458C16.6625 3.98985 16.8288 4.15183 16.9991 4.31037C17.1694 4.46892 17.3435 4.62403 17.5215 4.77568C17.6995 4.92731 17.8814 5.07528 18.0668 5.21981C18.2522 5.36433 18.441 5.50555 18.6335 5.64278C18.826 5.78 19.0221 5.91352 19.2214 6.04323C19.4208 6.17295 19.6233 6.29882 19.8292 6.42085C20.035 6.54287 20.244 6.66082 20.4561 6.77495C20.6681 6.88908 20.8835 6.99949 21.1015 7.10553C21.3194 7.21157 21.54 7.31349 21.7636 7.41124C21.9872 7.509 22.2137 7.60248 22.4426 7.69177C22.6715 7.78105 22.9028 7.86616 23.1367 7.94676C23.3706 8.02736 23.607 8.10349 23.8456 8.17521C24.0842 8.24693 24.3249 8.31413 24.5679 8.37679C24.9439 8.47357 25.3216 8.55853 25.7004 8.63145C26.0792 8.70436 26.4591 8.76505 26.8393 8.81388C27.2195 8.86271 27.5999 8.89955 27.9802 8.92407C28.3604 8.94859 28.7405 8.96103 29.1194 8.96103C29.5275 8.96103 29.9306 8.94723 30.3285 8.92004C30.7264 8.89285 31.1188 8.85227 31.505 8.79876C31.8913 8.74525 32.2716 8.67881 32.6449 8.59988C33.0183 8.52095 33.3848 8.42956 33.7438 8.32608C34.1029 8.2226 34.4546 8.10685 34.7981 7.9797C35.1416 7.85257 35.4766 7.71404 35.8033 7.56413C35.8535 7.54109 35.9 7.51345 35.9497 7.48988C35.6466 7.14388 35.3358 6.80483 35.0104 6.47999C34.7664 6.5859 34.5205 6.68968 34.2663 6.78203C33.9553 6.895 33.6371 6.99781 33.3118 7.08977C32.9865 7.18172 32.6544 7.26286 32.316 7.33301C31.9777 7.40315 31.6331 7.46218 31.283 7.50971C30.9328 7.55726 30.5771 7.59339 30.2163 7.61756C29.8555 7.64172 29.4897 7.65384 29.1194 7.65384C28.7681 7.65384 28.4156 7.64233 28.0628 7.61957C27.71 7.59681 27.3565 7.56279 27.0035 7.51744C26.6505 7.47209 26.2981 7.41556 25.9463 7.34778C25.5945 7.28001 25.2436 7.20095 24.8944 7.11093C24.6695 7.05293 24.4463 6.99077 24.2255 6.92447C24.0047 6.85817 23.7861 6.78791 23.5697 6.71348C23.3534 6.63905 23.1394 6.56067 22.9277 6.47831C22.7161 6.39594 22.5068 6.30941 22.3002 6.21928C22.0935 6.12914 21.8895 6.03513 21.688 5.93741C21.4866 5.83969 21.2879 5.73848 21.0921 5.63336C20.8962 5.52825 20.703 5.41949 20.5129 5.30715C20.3228 5.19481 20.1358 5.07882 19.9518 4.95943C19.7678 4.84005 19.5869 4.71714 19.4093 4.59088C19.2316 4.46463 19.0572 4.3351 18.8862 4.20217C18.7152 4.06924 18.5477 3.93308 18.3836 3.79365C18.2195 3.65422 18.059 3.5114 17.9022 3.36564C17.7453 3.21988 17.592 3.07105 17.4426 2.91915C17.2932 2.76725 17.1478 2.61239 17.0062 2.45452C16.8645 2.29665 16.7265 2.13573 16.5929 1.97208C16.4593 1.80843 16.3299 1.64212 16.2046 1.47286C16.0927 1.32175 15.9863 1.16899 15.8827 1.01562C15.4346 1.11913 14.9911 1.23403 14.5547 1.36637L14.5547 1.36639Z" fill="white"/>
<path d="M14.8805 11.4609C14.8805 12.7172 13.8632 13.7344 12.6075 13.7344C11.3521 13.7344 10.334 12.7172 10.334 11.4609C10.334 10.2059 11.3521 9.18873 12.6075 9.18873C13.8632 9.18873 14.8805 10.2059 14.8805 11.4609Z" fill="white"/>
<path d="M29.8164 8.26332C29.8164 9.26854 29.0023 10.082 27.9984 10.082C26.9939 10.082 26.1797 9.26854 26.1797 8.26332C26.1797 7.26016 26.9939 6.44529 27.9984 6.44529C29.0023 6.44529 29.8164 7.26016 29.8164 8.26332Z" fill="white"/>
<path d="M31.3199 27.2576C31.3199 28.7481 30.1096 29.957 28.62 29.957C27.1288 29.957 25.9199 28.7481 25.9199 27.2576C25.9199 25.7671 27.1288 24.5582 28.62 24.5582C30.1096 24.5582 31.3199 25.7671 31.3199 27.2576Z" fill="white"/>
<path d="M59.8837 23.5709L56.9129 15.3537L53.9152 23.5709H59.8837ZM61.0214 26.6804H52.7767L51.1664 31.0664H47.502L54.8309 11.7449H59.1059L66.4349 31.0664H62.6317L61.0214 26.6804Z" fill="#4C4C66"/>
<path d="M59.8837 23.5709L56.9129 15.3537L53.9152 23.5709H59.8837ZM61.0214 26.6804H52.7767L51.1664 31.0664H47.502L54.8309 11.7449H59.1059L66.4349 31.0664H62.6317L61.0214 26.6804Z" stroke="#4C4C66" stroke-width="1.57996" stroke-miterlimit="10" stroke-linecap="round" stroke-linejoin="round"/>
<path d="M86.312 11.741V31.0625H82.6475L73.487 18.2927V31.0625H69.8223V11.741H73.487L82.6475 24.483V11.741H86.312Z" fill="#4C4C66"/>
<path d="M86.312 11.741V31.0625H82.6475L73.487 18.2927V31.0625H69.8223V11.741H73.487L82.6475 24.483V11.741H86.312Z" stroke="#4C4C66" stroke-width="1.57996" stroke-miterlimit="10" stroke-linecap="round" stroke-linejoin="round"/>
<path d="M95.9459 15.1H90.4492V11.741H105.106V15.1H99.6104V31.0625H95.9459V15.1Z" fill="#4C4C66"/>
<path d="M95.9459 15.1H90.4492V11.741H105.106V15.1H99.6104V31.0625H95.9459V15.1Z" stroke="#4C4C66" stroke-width="1.57996" stroke-miterlimit="10" stroke-linecap="round" stroke-linejoin="round"/>
<path d="M118.459 23.5709L115.488 15.3537L112.491 23.5709H118.459ZM119.597 26.6804H111.352L109.742 31.0664H106.078L113.407 11.7449H117.681L125.011 31.0664H121.207L119.597 26.6804Z" fill="#4C4C66"/>
<path d="M118.459 23.5709L115.488 15.3537L112.491 23.5709H118.459ZM119.597 26.6804H111.352L109.742 31.0664H106.078L113.407 11.7449H117.681L125.011 31.0664H121.207L119.597 26.6804Z" stroke="#4C4C66" stroke-width="1.57996" stroke-miterlimit="10" stroke-linecap="round" stroke-linejoin="round"/>
<path d="M132.061 20.4855H135.392C136.614 20.4855 137.517 20.2734 138.099 19.8472C138.682 19.4218 138.973 18.7 138.973 17.6815C138.973 16.7013 138.686 16.0071 138.113 15.5995C137.539 15.1927 136.623 14.989 135.365 14.989H132.061V20.4855ZM139.446 31.0625L135.504 23.7058H132.061V31.0625H128.396V11.7412H135.365C137.863 11.7412 139.733 12.241 140.972 13.24C142.213 14.2395 142.833 15.6926 142.833 17.5987C142.833 18.9498 142.527 20.097 141.916 21.0408C141.306 21.9847 140.399 22.6882 139.196 23.1507L143.471 31.0625H139.446Z" fill="#4C4C66"/>
<path d="M132.061 20.4855H135.392C136.614 20.4855 137.517 20.2734 138.099 19.8472C138.682 19.4218 138.973 18.7 138.973 17.6815C138.973 16.7013 138.686 16.0071 138.113 15.5995C137.539 15.1927 136.623 14.989 135.365 14.989H132.061V20.4855ZM139.446 31.0625L135.504 23.7058H132.061V31.0625H128.396V11.7412H135.365C137.863 11.7412 139.733 12.241 140.972 13.24C142.213 14.2395 142.833 15.6926 142.833 17.5987C142.833 18.9498 142.527 20.097 141.916 21.0408C141.306 21.9847 140.399 22.6882 139.196 23.1507L143.471 31.0625H139.446Z" stroke="#4C4C66" stroke-width="1.57996" stroke-miterlimit="10" stroke-linecap="round" stroke-linejoin="round"/>
<path d="M151.215 14.9652V19.7956H159.544V22.8209H151.215V27.8462H160.154V31.0664H147.551V11.7449H160.154V14.9652H151.215Z" fill="#4C4C66"/>
<path d="M151.215 14.9652V19.7956H159.544V22.8209H151.215V27.8462H160.154V31.0664H147.551V11.7449H160.154V14.9652H151.215Z" stroke="#4C4C66" stroke-width="1.57996" stroke-miterlimit="10" stroke-linecap="round" stroke-linejoin="round"/>
<path d="M167.733 30.9817C166.568 30.7042 165.467 30.3253 164.43 29.8437V26.29C166.836 27.586 168.983 28.2335 170.871 28.2335C171.814 28.2335 172.578 28.03 173.161 27.6227C173.744 27.2156 174.036 26.642 174.036 25.9017C174.036 25.3838 173.873 24.9437 173.55 24.5832C173.225 24.222 172.823 23.9261 172.342 23.6947C171.861 23.4633 171.176 23.181 170.288 22.848C169.084 22.4037 168.104 21.9783 167.345 21.571C166.586 21.1639 165.938 20.5855 165.402 19.8359C164.864 19.0862 164.597 18.1193 164.597 16.9345C164.597 15.1951 165.198 13.8395 166.401 12.868C167.604 11.8962 169.251 11.4102 171.342 11.4102C172.323 11.4102 173.286 11.5169 174.229 11.7297C175.173 11.9425 176.043 12.2526 176.839 12.6597V16.1297C174.97 15.0935 173.165 14.5752 171.426 14.5752C170.463 14.5752 169.709 14.7465 169.164 15.0887C168.617 15.4311 168.345 15.9171 168.345 16.546C168.345 17.1755 168.626 17.6702 169.191 18.0315C169.755 18.3922 170.63 18.7858 171.814 19.2112C173.054 19.674 174.072 20.1185 174.868 20.5435C175.664 20.9696 176.353 21.5849 176.937 22.3897C177.52 23.1947 177.83 24.2357 177.866 25.5132C177.866 27.345 177.246 28.7843 176.006 29.8295C174.766 30.8755 173.11 31.3984 171.037 31.3984C170 31.3984 168.9 31.2592 167.733 30.9817Z" fill="#4C4C66"/>
<path d="M167.733 30.9817C166.568 30.7042 165.467 30.3253 164.43 29.8437V26.29C166.836 27.586 168.983 28.2335 170.871 28.2335C171.814 28.2335 172.578 28.03 173.161 27.6227C173.744 27.2156 174.036 26.642 174.036 25.9017C174.036 25.3838 173.873 24.9437 173.55 24.5832C173.225 24.222 172.823 23.9261 172.342 23.6947C171.861 23.4633 171.176 23.181 170.288 22.848C169.084 22.4037 168.104 21.9783 167.345 21.571C166.586 21.1639 165.938 20.5855 165.402 19.8359C164.864 19.0862 164.597 18.1193 164.597 16.9345C164.597 15.1951 165.198 13.8395 166.401 12.868C167.604 11.8962 169.251 11.4102 171.342 11.4102C172.323 11.4102 173.286 11.5169 174.229 11.7297C175.173 11.9425 176.043 12.2526 176.839 12.6597V16.1297C174.97 15.0935 173.165 14.5752 171.426 14.5752C170.463 14.5752 169.709 14.7465 169.164 15.0887C168.617 15.4311 168.345 15.9171 168.345 16.546C168.345 17.1755 168.626 17.6702 169.191 18.0315C169.755 18.3922 170.63 18.7858 171.814 19.2112C173.054 19.674 174.072 20.1185 174.868 20.5435C175.664 20.9696 176.353 21.5849 176.937 22.3897C177.52 23.1947 177.83 24.2357 177.866 25.5132C177.866 27.345 177.246 28.7843 176.006 29.8295C174.766 30.8755 173.11 31.3984 171.037 31.3984C170 31.3984 168.9 31.2592 167.733 30.9817V30.9817Z" stroke="#4C4C66" stroke-width="1.57996" stroke-miterlimit="10" stroke-linecap="round" stroke-linejoin="round"/>
<defs>
<linearGradient id="paint0_linear_15269_16509" x1="28.4361" y1="3.34119" x2="14.3206" y2="34.8104" gradientUnits="userSpaceOnUse">
<stop stop-color="#F2B81A"/>
<stop offset="0.29219" stop-color="#E78C00"/>
<stop offset="0.95869" stop-color="#BE1E2D"/>
<stop offset="1" stop-color="#BE1E2D"/>
</linearGradient>
<linearGradient id="paint1_linear_15269_16509" x1="28.437" y1="3.34113" x2="14.3215" y2="34.8103" gradientUnits="userSpaceOnUse">
<stop stop-color="#F2B81A"/>
<stop offset="0.29219" stop-color="#E78C00"/>
<stop offset="0.95869" stop-color="#BE1E2D"/>
<stop offset="1" stop-color="#BE1E2D"/>
</linearGradient>
<linearGradient id="paint2_linear_15269_16509" x1="28.4363" y1="3.34272" x2="14.3208" y2="34.8119" gradientUnits="userSpaceOnUse">
<stop stop-color="#F2B81A"/>
<stop offset="0.29219" stop-color="#E78C00"/>
<stop offset="0.95869" stop-color="#BE1E2D"/>
<stop offset="1" stop-color="#BE1E2D"/>
</linearGradient>
<linearGradient id="paint3_linear_15269_16509" x1="28.4366" y1="3.34238" x2="14.3212" y2="34.8116" gradientUnits="userSpaceOnUse">
<stop stop-color="#F2B81A"/>
<stop offset="0.29219" stop-color="#E78C00"/>
<stop offset="0.95869" stop-color="#BE1E2D"/>
<stop offset="1" stop-color="#BE1E2D"/>
</linearGradient>
</defs>
</svg>
